<svg width="368" height="45" viewBox="0 0 368 45" fill="none" xmlns="http://www.w3.org/2000/svg">
<path d="M0.168 34.5V2.07H7.436L22.478 20.24H21.052V2.07H30.298V34.5H23.03L8.034 16.33H9.46V34.5H0.168ZM44.4883 35.052C42.4949 35.052 40.7163 34.5613 39.1523 33.58C37.6189 32.5987 36.4076 31.188 35.5183 29.348C34.6596 27.508 34.2303 25.3153 34.2303 22.77C34.2303 20.2247 34.6596 18.032 35.5183 16.192C36.4076 14.352 37.6189 12.9413 39.1523 11.96C40.7163 10.9787 42.4949 10.488 44.4883 10.488C46.2056 10.488 47.7849 10.8867 49.2263 11.684C50.6983 12.4813 51.6489 13.524 52.0783 14.812H51.6183L52.1703 11.04H61.3703C61.2476 12.144 61.1556 13.2633 61.0943 14.398C61.0329 15.502 61.0023 16.606 61.0023 17.71V34.5H51.5263L51.4343 31.004H51.9863C51.5263 32.2 50.5756 33.1813 49.1343 33.948C47.7236 34.684 46.1749 35.052 44.4883 35.052ZM47.7083 28.014C48.8429 28.014 49.7629 27.6153 50.4683 26.818C51.2043 26.0207 51.5723 24.6713 51.5723 22.77C51.5723 20.8687 51.2043 19.5193 50.4683 18.722C49.7629 17.9247 48.8429 17.526 47.7083 17.526C46.5736 17.526 45.6383 17.9247 44.9023 18.722C44.1969 19.5193 43.8443 20.8687 43.8443 22.77C43.8443 24.6713 44.1969 26.0207 44.9023 26.818C45.6076 27.6153 46.5429 28.014 47.7083 28.014ZM65.4287 34.5V17.71C65.4287 16.606 65.398 15.502 65.3367 14.398C65.2754 13.2633 65.1834 12.144 65.0607 11.04H74.2607L74.7667 14.766H74.2607C75.058 13.4167 76.1467 12.374 77.5267 11.638C78.9067 10.8713 80.4554 10.488 82.1727 10.488C84.9327 10.488 86.9874 11.3313 88.3367 13.018C89.686 14.674 90.3607 17.25 90.3607 20.746V34.5H80.7927V21.114C80.7927 19.8567 80.578 18.9827 80.1487 18.492C79.75 18.0013 79.198 17.756 78.4927 17.756C77.45 17.756 76.6067 18.1087 75.9627 18.814C75.3187 19.4887 74.9967 20.3933 74.9967 21.528V34.5H65.4287ZM104.058 35.052C102.065 35.052 100.286 34.5613 98.7219 33.58C97.1579 32.5987 95.9159 31.188 94.9959 29.348C94.1066 27.508 93.6619 25.3153 93.6619 22.77C93.6619 20.2247 94.1066 18.032 94.9959 16.192C95.8853 14.352 97.1119 12.9413 98.6759 11.96C100.271 10.9787 102.065 10.488 104.058 10.488C105.745 10.488 107.293 10.8713 108.704 11.638C110.115 12.374 111.065 13.34 111.556 14.536H110.866V0.643997H120.434V34.5H111.004V30.728H111.648C111.219 32.016 110.283 33.0587 108.842 33.856C107.401 34.6533 105.806 35.052 104.058 35.052ZM107.232 28.014C108.336 28.014 109.256 27.6153 109.992 26.818C110.728 26.0207 111.096 24.6713 111.096 22.77C111.096 20.8687 110.728 19.5193 109.992 18.722C109.256 17.9247 108.336 17.526 107.232 17.526C106.128 17.526 105.193 17.9247 104.426 18.722C103.69 19.5193 103.322 20.8687 103.322 22.77C103.322 24.6713 103.69 26.0207 104.426 26.818C105.193 27.6153 106.128 28.014 107.232 28.014ZM137.786 35.052C133.37 35.052 129.951 33.948 127.528 31.74C125.106 29.532 123.894 26.5267 123.894 22.724C123.894 20.3627 124.385 18.262 125.366 16.422C126.378 14.582 127.789 13.1407 129.598 12.098C131.438 11.0247 133.585 10.488 136.038 10.488C138.492 10.488 140.531 11.0247 142.156 12.098C143.782 13.1713 144.993 14.6433 145.79 16.514C146.588 18.354 146.986 20.47 146.986 22.862V24.702H131.99V20.378H139.856L139.074 21.022C139.074 19.5193 138.814 18.4307 138.292 17.756C137.771 17.0507 137.05 16.698 136.13 16.698C135.057 16.698 134.244 17.1273 133.692 17.986C133.171 18.814 132.91 20.1633 132.91 22.034V23C132.91 24.7787 133.34 26.0667 134.198 26.864C135.088 27.6307 136.391 28.014 138.108 28.014C139.274 28.014 140.378 27.9067 141.42 27.692C142.463 27.4467 143.46 27.0633 144.41 26.542L146.802 32.752C145.576 33.488 144.196 34.0553 142.662 34.454C141.16 34.8527 139.534 35.052 137.786 35.052ZM150.376 34.5V17.71C150.376 16.606 150.345 15.502 150.284 14.398C150.223 13.2633 150.131 12.144 150.008 11.04H159.208L159.714 14.766H159.208C160.005 13.4167 161.094 12.374 162.474 11.638C163.854 10.8713 165.403 10.488 167.12 10.488C169.88 10.488 171.935 11.3313 173.284 13.018C174.633 14.674 175.308 17.25 175.308 20.746V34.5H165.74V21.114C165.74 19.8567 165.525 18.9827 165.096 18.492C164.697 18.0013 164.145 17.756 163.44 17.756C162.397 17.756 161.554 18.1087 160.91 18.814C160.266 19.4887 159.944 20.3933 159.944 21.528V34.5H150.376ZM180.035 25.438V18.078H195.675V25.438H180.035ZM201.014 34.5V2.07H210.95V34.5H201.014ZM215.827 34.5V17.71C215.827 16.606 215.796 15.502 215.735 14.398C215.674 13.2633 215.582 12.144 215.459 11.04H224.659L225.165 14.766H224.659C225.456 13.4167 226.545 12.374 227.925 11.638C229.305 10.8713 230.854 10.488 232.571 10.488C235.331 10.488 237.386 11.3313 238.735 13.018C240.084 14.674 240.759 17.25 240.759 20.746V34.5H231.191V21.114C231.191 19.8567 230.976 18.9827 230.547 18.492C230.148 18.0013 229.596 17.756 228.891 17.756C227.848 17.756 227.005 18.1087 226.361 18.814C225.717 19.4887 225.395 20.3933 225.395 21.528V34.5H215.827ZM247.234 34.5V18.032H242.91V11.04H249.948L247.234 13.524V10.534C247.234 7.16066 248.108 4.646 249.856 2.99C251.635 1.30333 254.242 0.46 257.676 0.46C258.504 0.46 259.378 0.505999 260.298 0.597998C261.249 0.689998 262.092 0.889332 262.828 1.196V8.418C262.368 8.26467 261.862 8.15733 261.31 8.096C260.758 8.03467 260.222 8.004 259.7 8.004C258.934 8.004 258.244 8.17267 257.63 8.51C257.017 8.84733 256.71 9.59867 256.71 10.764V12.42L255.422 11.04H274.052V34.5H264.484V18.032H256.802V34.5H247.234ZM264.346 8.372V-2.74181e-06H274.19V8.372H264.346ZM278.448 34.5V17.71C278.448 16.606 278.418 15.502 278.356 14.398C278.295 13.2633 278.203 12.144 278.08 11.04H287.28L287.786 14.766H287.28C288.078 13.4167 289.166 12.374 290.546 11.638C291.926 10.8713 293.475 10.488 295.192 10.488C297.952 10.488 300.007 11.3313 301.356 13.018C302.706 14.674 303.38 17.25 303.38 20.746V34.5H293.812V21.114C293.812 19.8567 293.598 18.9827 293.168 18.492C292.77 18.0013 292.218 17.756 291.512 17.756C290.47 17.756 289.626 18.1087 288.982 18.814C288.338 19.4887 288.016 20.3933 288.016 21.528V34.5H278.448ZM307.647 34.5V11.04H317.215V34.5H307.647ZM307.509 8.372V-2.74181e-06H317.353V8.372H307.509ZM334.728 35.052C331.079 35.052 328.349 34.224 326.54 32.568C324.731 30.8813 323.826 28.336 323.826 24.932V18.032H319.502V11.04H323.826V5.75L333.394 3.542V11.04H338.822V18.032H333.394V24.656C333.394 25.852 333.685 26.6187 334.268 26.956C334.881 27.2933 335.556 27.462 336.292 27.462C336.813 27.462 337.243 27.4313 337.58 27.37C337.948 27.3087 338.362 27.2013 338.822 27.048V34.316C338.086 34.6227 337.365 34.822 336.66 34.914C335.985 35.006 335.341 35.052 334.728 35.052ZM342.381 44.942L340.127 37.582C341.599 37.3367 342.841 37.076 343.853 36.8C344.865 36.524 345.693 36.1253 346.337 35.604C346.981 35.1133 347.471 34.454 347.809 33.626L348.959 31.004L348.729 34.5L338.517 11.04H348.545L353.835 25.07H352.179L357.745 11.04H367.129L356.687 34.592C355.797 36.5853 354.847 38.2107 353.835 39.468C352.853 40.7253 351.78 41.7067 350.615 42.412C349.449 43.148 348.192 43.6847 346.843 44.022C345.493 44.39 344.006 44.6967 342.381 44.942Z" fill="#13E60F"/>
</svg>
